<?xml version="1.0" standalone="no"?>
<!DOCTYPE svg PUBLIC "-//W3C//DTD SVG 20010904//EN"
 "http://www.w3.org/TR/2001/REC-SVG-20010904/DTD/svg10.dtd">
<svg version="1.0" xmlns="http://www.w3.org/2000/svg"
 width="1135.000000pt" height="1280.000000pt" viewBox="0 0 1135.000000 1280.000000"
 preserveAspectRatio="xMidYMid meet">
<metadata>
Created by potrace 1.15, written by Peter Selinger 2001-2017
</metadata>
<g transform="translate(0.000000,1280.000000) scale(0.100000,-0.100000)"
fill="#000000" stroke="none">
<path d="M5505 12794 c-350 -34 -610 -88 -879 -181 -384 -134 -711 -314 -1036
-572 -122 -96 -394 -368 -492 -491 -349 -440 -577 -926 -688 -1470 -51 -252
-63 -379 -64 -670 -1 -277 6 -364 50 -611 73 -416 237 -843 463 -1206 l70
-113 -87 -62 c-986 -709 -1650 -1548 -1975 -2494 -308 -896 -267 -1811 113
-2569 308 -615 732 -1024 1295 -1250 287 -115 564 -177 995 -222 136 -14 413
-17 2300 -20 2183 -5 2443 -1 2708 33 306 39 580 106 822 201 865 340 1402
1016 1541 1944 20 132 23 193 24 434 0 294 -7 382 -51 635 -126 723 -459 1432
-988 2105 -264 336 -692 763 -1056 1054 -58 46 -111 90 -118 96 -11 10 -5 25
35 81 279 392 483 895 568 1397 64 383 59 827 -15 1207 -154 790 -590 1516
-1205 2005 -489 389 -1084 639 -1715 720 -118 15 -525 28 -615 19z"/>
</g>
</svg>
